<?xml version="1.0" encoding="utf-8"?>
<svg version="1.1" xmlns:xlink="http://www.w3.org/1999/xlink" width="34px" height="36px" xmlns="http://www.w3.org/2000/svg">
  <g transform="matrix(1 0 0 1 -962 -1254 )">
    <path d="M 962.5 1258  A 3.5 3.5 0 0 1 966 1254.5 L 992 1254.5  A 3.5 3.5 0 0 1 995.5 1258 L 995.5 1286  A 3.5 3.5 0 0 1 992 1289.5 L 966 1289.5  A 3.5 3.5 0 0 1 962.5 1286 L 962.5 1258  Z " fill-rule="nonzero" fill="#0854a0" stroke="none" />
    <path d="M 962.5 1258  A 3.5 3.5 0 0 1 966 1254.5 L 992 1254.5  A 3.5 3.5 0 0 1 995.5 1258 L 995.5 1286  A 3.5 3.5 0 0 1 992 1289.5 L 966 1289.5  A 3.5 3.5 0 0 1 962.5 1286 L 962.5 1258  Z " stroke-width="1" stroke="#0854a0" fill="none" />
  </g>
</svg>