<?xml version="1.0" encoding="utf-8"?>
<svg version="1.1" xmlns:xlink="http://www.w3.org/1999/xlink" width="940px" height="60px" xmlns="http://www.w3.org/2000/svg">
  <defs>
    <mask fill="white" id="clip23">
      <path d="M 0 60  L 0 0  L 74.9787808641984 0  L 103.991126543209 0  L 940 0  L 940 60  L 0 60  Z " fill-rule="evenodd" />
    </mask>
  </defs>
  <g transform="matrix(1 0 0 1 -9 -1578 )">
    <path d="M 0 60  L 0 0  L 74.9787808641984 0  L 103.991126543209 0  L 940 0  L 940 60  L 0 60  Z " fill-rule="nonzero" fill="#ffffff" stroke="none" fill-opacity="0" transform="matrix(1 0 0 1 9 1578 )" />
    <path d="M 0 60  L 0 0  L 74.9787808641984 0  L 103.991126543209 0  L 940 0  L 940 60  L 0 60  Z " stroke-width="6" stroke="#0854a1" fill="none" stroke-opacity="0.250980392156863" transform="matrix(1 0 0 1 9 1578 )" mask="url(#clip23)" />
  </g>
</svg>